<svg xmlns="http://www.w3.org/2000/svg" xmlns:xlink="http://www.w3.org/1999/xlink" width="500" zoomAndPan="magnify" viewBox="0 0 375 374.999991" height="500" preserveAspectRatio="xMidYMid meet" version="1.0"><defs><clipPath id="a1c65c2935"><path d="M 22.140625 252 L 352.890625 252 L 352.890625 292 L 22.140625 292 Z M 22.140625 252 " clip-rule="nonzero"/></clipPath><clipPath id="1a02c1258a"><path d="M 23 291 L 352.890625 291 L 352.890625 305.59375 L 23 305.59375 Z M 23 291 " clip-rule="nonzero"/></clipPath><clipPath id="3839f5a96e"><path d="M 23 291 L 349 291 L 349 305.59375 L 23 305.59375 Z M 23 291 " clip-rule="nonzero"/></clipPath><clipPath id="77b73decd1"><path d="M 50 69.34375 L 325 69.34375 L 325 251 L 50 251 Z M 50 69.34375 " clip-rule="nonzero"/></clipPath><clipPath id="4ba75d02dc"><path d="M 50 69.34375 L 321 69.34375 L 321 248 L 50 248 Z M 50 69.34375 " clip-rule="nonzero"/></clipPath></defs><g clip-path="url(#a1c65c2935)"><path fill="#192c37" d="M 352.199219 291.71875 L 330.742188 261.019531 C 327.4375 256.289062 317.09375 252.457031 307.632812 252.457031 L 67.496094 252.457031 C 58.039062 252.457031 47.691406 256.289062 44.386719 261.019531 L 22.929688 291.71875 L 352.199219 291.71875 " fill-opacity="1" fill-rule="nonzero"/></g><g clip-path="url(#1a02c1258a)"><path fill="#bbbaba" d="M 23.09375 291.71875 C 22.1875 299.523438 27.839844 305.390625 37.027344 305.390625 L 338.105469 305.390625 C 347.292969 305.390625 352.941406 299.523438 352.03125 291.71875 L 23.09375 291.71875 " fill-opacity="1" fill-rule="nonzero"/></g><g clip-path="url(#3839f5a96e)"><path fill="#797777" d="M 42.382812 302.089844 C 23 302.089844 23.09375 291.71875 23.09375 291.71875 C 22.1875 299.523438 27.839844 305.390625 37.027344 305.390625 L 338.105469 305.390625 C 342.503906 305.390625 346.03125 304 348.441406 301.726562 C 348.441406 301.726562 45.277344 302.089844 42.382812 302.089844 " fill-opacity="1" fill-rule="nonzero"/></g><g clip-path="url(#77b73decd1)"><path fill="#192c37" d="M 307.15625 69.523438 L 67.972656 69.523438 C 58.515625 69.523438 50.84375 77.183594 50.84375 86.644531 L 50.84375 232.917969 C 50.84375 242.371094 58.515625 250.039062 67.972656 250.039062 L 307.15625 250.039062 C 316.617188 250.039062 324.285156 242.371094 324.285156 232.917969 L 324.285156 86.644531 C 324.285156 77.183594 316.617188 69.523438 307.15625 69.523438 " fill-opacity="1" fill-rule="nonzero"/></g><g clip-path="url(#4ba75d02dc)"><path fill="#0e191f" d="M 54.964844 236.921875 L 54.964844 90.652344 C 54.964844 81.195312 62.632812 73.53125 72.097656 73.53125 L 311.28125 73.53125 C 314.824219 73.53125 318.113281 74.605469 320.847656 76.449219 C 317.722656 72.265625 312.777344 69.523438 307.15625 69.523438 L 67.972656 69.523438 C 58.515625 69.523438 50.84375 77.183594 50.84375 86.644531 L 50.84375 232.917969 C 50.84375 238.832031 53.847656 244.046875 58.410156 247.121094 C 56.277344 244.265625 54.964844 240.761719 54.964844 236.921875 " fill-opacity="1" fill-rule="nonzero"/></g><path fill="#5cc9d9" d="M 312.925781 232.871094 L 62.203125 232.871094 L 62.203125 89.652344 L 312.925781 89.652344 L 312.925781 232.871094 " fill-opacity="1" fill-rule="nonzero"/><path fill="#4ca5b3" d="M 83.929688 200.695312 C 115.984375 187.488281 149.523438 178.328125 183.574219 171.925781 C 225.371094 164.070312 267.796875 161.65625 310.21875 162.554688 L 310.21875 91.972656 L 64.910156 91.972656 L 64.910156 208.714844 C 71.414062 205.824219 77.867188 203.191406 83.929688 200.695312 " fill-opacity="1" fill-rule="nonzero"/><path fill="#0e191f" d="M 149.203125 250.140625 C 149.203125 252.300781 146.578125 254.050781 143.347656 254.050781 L 100.082031 254.050781 C 96.851562 254.050781 94.230469 252.300781 94.230469 250.140625 C 94.230469 247.984375 96.851562 246.234375 100.082031 246.234375 L 143.347656 246.234375 C 146.578125 246.234375 149.203125 247.984375 149.203125 250.140625 " fill-opacity="1" fill-rule="nonzero"/><path fill="#0e191f" d="M 280.898438 250.140625 C 280.898438 252.300781 278.28125 254.050781 275.042969 254.050781 L 231.78125 254.050781 C 228.546875 254.050781 225.925781 252.300781 225.925781 250.140625 C 225.925781 247.984375 228.546875 246.234375 231.78125 246.234375 L 275.042969 246.234375 C 278.28125 246.234375 280.898438 247.984375 280.898438 250.140625 " fill-opacity="1" fill-rule="nonzero"/><path fill="#172832" d="M 67.871094 264.71875 L 59.164062 264.71875 C 57.890625 264.71875 56.851562 264.179688 56.851562 263.519531 L 56.851562 261.855469 C 56.851562 261.191406 57.890625 260.65625 59.164062 260.65625 L 67.871094 260.65625 C 69.152344 260.65625 70.1875 261.191406 70.1875 261.855469 L 70.1875 263.519531 C 70.1875 264.179688 69.152344 264.71875 67.871094 264.71875 " fill-opacity="1" fill-rule="nonzero"/><path fill="#172832" d="M 88.664062 264.71875 L 79.957031 264.71875 C 78.679688 264.71875 77.640625 264.179688 77.640625 263.519531 L 77.640625 261.855469 C 77.640625 261.191406 78.679688 260.65625 79.957031 260.65625 L 88.664062 260.65625 C 89.945312 260.65625 90.980469 261.191406 90.980469 261.855469 L 90.980469 263.519531 C 90.980469 264.179688 89.945312 264.71875 88.664062 264.71875 " fill-opacity="1" fill-rule="nonzero"/><path fill="#172832" d="M 109.449219 264.71875 L 100.75 264.71875 C 99.472656 264.71875 98.433594 264.179688 98.433594 263.519531 L 98.433594 261.855469 C 98.433594 261.191406 99.472656 260.65625 100.75 260.65625 L 109.449219 260.65625 C 110.734375 260.65625 111.773438 261.191406 111.773438 261.855469 L 111.773438 263.519531 C 111.773438 264.179688 110.734375 264.71875 109.449219 264.71875 " fill-opacity="1" fill-rule="nonzero"/><path fill="#172832" d="M 130.242188 264.71875 L 121.542969 264.71875 C 120.261719 264.71875 119.222656 264.179688 119.222656 263.519531 L 119.222656 261.855469 C 119.222656 261.191406 120.261719 260.65625 121.542969 260.65625 L 130.242188 260.65625 C 131.527344 260.65625 132.5625 261.191406 132.5625 261.855469 L 132.5625 263.519531 C 132.5625 264.179688 131.527344 264.71875 130.242188 264.71875 " fill-opacity="1" fill-rule="nonzero"/><path fill="#172832" d="M 151.035156 264.71875 L 142.332031 264.71875 C 141.054688 264.71875 140.015625 264.179688 140.015625 263.519531 L 140.015625 261.855469 C 140.015625 261.191406 141.054688 260.65625 142.332031 260.65625 L 151.035156 260.65625 C 152.316406 260.65625 153.355469 261.191406 153.355469 261.855469 L 153.355469 263.519531 C 153.355469 264.179688 152.316406 264.71875 151.035156 264.71875 " fill-opacity="1" fill-rule="nonzero"/><path fill="#172832" d="M 171.828125 264.71875 L 163.125 264.71875 C 161.839844 264.71875 160.808594 264.179688 160.808594 263.519531 L 160.808594 261.855469 C 160.808594 261.191406 161.839844 260.65625 163.125 260.65625 L 171.828125 260.65625 C 173.105469 260.65625 174.144531 261.191406 174.144531 261.855469 L 174.144531 263.519531 C 174.144531 264.179688 173.105469 264.71875 171.828125 264.71875 " fill-opacity="1" fill-rule="nonzero"/><path fill="#172832" d="M 192.617188 264.71875 L 183.914062 264.71875 C 182.632812 264.71875 181.597656 264.179688 181.597656 263.519531 L 181.597656 261.855469 C 181.597656 261.191406 182.632812 260.65625 183.914062 260.65625 L 192.617188 260.65625 C 193.894531 260.65625 194.933594 261.191406 194.933594 261.855469 L 194.933594 263.519531 C 194.933594 264.179688 193.894531 264.71875 192.617188 264.71875 " fill-opacity="1" fill-rule="nonzero"/><path fill="#172832" d="M 213.410156 264.71875 L 204.707031 264.71875 C 203.425781 264.71875 202.386719 264.179688 202.386719 263.519531 L 202.386719 261.855469 C 202.386719 261.191406 203.425781 260.65625 204.707031 260.65625 L 213.410156 260.65625 C 214.6875 260.65625 215.726562 261.191406 215.726562 261.855469 L 215.726562 263.519531 C 215.726562 264.179688 214.6875 264.71875 213.410156 264.71875 " fill-opacity="1" fill-rule="nonzero"/><path fill="#172832" d="M 234.199219 264.71875 L 225.5 264.71875 C 224.21875 264.71875 223.179688 264.179688 223.179688 263.519531 L 223.179688 261.855469 C 223.179688 261.191406 224.21875 260.65625 225.5 260.65625 L 234.199219 260.65625 C 235.480469 260.65625 236.515625 261.191406 236.515625 261.855469 L 236.515625 263.519531 C 236.515625 264.179688 235.480469 264.71875 234.199219 264.71875 " fill-opacity="1" fill-rule="nonzero"/><path fill="#172832" d="M 254.992188 264.71875 L 246.289062 264.71875 C 245.011719 264.71875 243.96875 264.179688 243.96875 263.519531 L 243.96875 261.855469 C 243.96875 261.191406 245.011719 260.65625 246.289062 260.65625 L 254.992188 260.65625 C 256.273438 260.65625 257.308594 261.191406 257.308594 261.855469 L 257.308594 263.519531 C 257.308594 264.179688 256.273438 264.71875 254.992188 264.71875 " fill-opacity="1" fill-rule="nonzero"/><path fill="#172832" d="M 275.777344 264.71875 L 267.082031 264.71875 C 265.800781 264.71875 264.761719 264.179688 264.761719 263.519531 L 264.761719 261.855469 C 264.761719 261.191406 265.800781 260.65625 267.082031 260.65625 L 275.777344 260.65625 C 277.0625 260.65625 278.101562 261.191406 278.101562 261.855469 L 278.101562 263.519531 C 278.101562 264.179688 277.0625 264.71875 275.777344 264.71875 " fill-opacity="1" fill-rule="nonzero"/><path fill="#172832" d="M 296.570312 264.71875 L 287.871094 264.71875 C 286.59375 264.71875 285.554688 264.179688 285.554688 263.519531 L 285.554688 261.855469 C 285.554688 261.191406 286.59375 260.65625 287.871094 260.65625 L 296.570312 260.65625 C 297.855469 260.65625 298.894531 261.191406 298.894531 261.855469 L 298.894531 263.519531 C 298.894531 264.179688 297.855469 264.71875 296.570312 264.71875 " fill-opacity="1" fill-rule="nonzero"/><path fill="#172832" d="M 317.363281 264.71875 L 308.664062 264.71875 C 307.382812 264.71875 306.347656 264.179688 306.347656 263.519531 L 306.347656 261.855469 C 306.347656 261.191406 307.382812 260.65625 308.664062 260.65625 L 317.363281 260.65625 C 318.644531 260.65625 319.683594 261.191406 319.683594 261.855469 L 319.683594 263.519531 C 319.683594 264.179688 318.644531 264.71875 317.363281 264.71875 " fill-opacity="1" fill-rule="nonzero"/><path fill="#172832" d="M 60.453125 272.386719 L 51.222656 272.386719 C 49.863281 272.386719 48.753906 271.8125 48.753906 271.113281 L 48.753906 269.347656 C 48.753906 268.644531 49.863281 268.070312 51.222656 268.070312 L 60.453125 268.070312 C 61.816406 268.070312 62.917969 268.644531 62.917969 269.347656 L 62.917969 271.113281 C 62.917969 271.8125 61.816406 272.386719 60.453125 272.386719 " fill-opacity="1" fill-rule="nonzero"/><path fill="#172832" d="M 82.527344 272.386719 L 73.289062 272.386719 C 71.933594 272.386719 70.828125 271.8125 70.828125 271.113281 L 70.828125 269.347656 C 70.828125 268.644531 71.933594 268.070312 73.289062 268.070312 L 82.527344 268.070312 C 83.890625 268.070312 84.988281 268.644531 84.988281 269.347656 L 84.988281 271.113281 C 84.988281 271.8125 83.890625 272.386719 82.527344 272.386719 " fill-opacity="1" fill-rule="nonzero"/><path fill="#172832" d="M 104.597656 272.386719 L 95.359375 272.386719 C 94 272.386719 92.898438 271.8125 92.898438 271.113281 L 92.898438 269.347656 C 92.898438 268.644531 94 268.070312 95.359375 268.070312 L 104.597656 268.070312 C 105.957031 268.070312 107.0625 268.644531 107.0625 269.347656 L 107.0625 271.113281 C 107.0625 271.8125 105.957031 272.386719 104.597656 272.386719 " fill-opacity="1" fill-rule="nonzero"/><path fill="#172832" d="M 126.671875 272.386719 L 117.429688 272.386719 C 116.078125 272.386719 114.972656 271.8125 114.972656 271.113281 L 114.972656 269.347656 C 114.972656 268.644531 116.078125 268.070312 117.429688 268.070312 L 126.671875 268.070312 C 128.03125 268.070312 129.132812 268.644531 129.132812 269.347656 L 129.132812 271.113281 C 129.132812 271.8125 128.03125 272.386719 126.671875 272.386719 " fill-opacity="1" fill-rule="nonzero"/><path fill="#172832" d="M 148.742188 272.386719 L 139.503906 272.386719 C 138.148438 272.386719 137.042969 271.8125 137.042969 271.113281 L 137.042969 269.347656 C 137.042969 268.644531 138.148438 268.070312 139.503906 268.070312 L 148.742188 268.070312 C 150.101562 268.070312 151.203125 268.644531 151.203125 269.347656 L 151.203125 271.113281 C 151.203125 271.8125 150.101562 272.386719 148.742188 272.386719 " fill-opacity="1" fill-rule="nonzero"/><path fill="#172832" d="M 170.8125 272.386719 L 161.574219 272.386719 C 160.214844 272.386719 159.117188 271.8125 159.117188 271.113281 L 159.117188 269.347656 C 159.117188 268.644531 160.214844 268.070312 161.574219 268.070312 L 170.8125 268.070312 C 172.175781 268.070312 173.273438 268.644531 173.273438 269.347656 L 173.273438 271.113281 C 173.273438 271.8125 172.175781 272.386719 170.8125 272.386719 " fill-opacity="1" fill-rule="nonzero"/><path fill="#172832" d="M 192.890625 272.386719 L 183.644531 272.386719 C 182.285156 272.386719 181.1875 271.8125 181.1875 271.113281 L 181.1875 269.347656 C 181.1875 268.644531 182.285156 268.070312 183.644531 268.070312 L 192.890625 268.070312 C 194.242188 268.070312 195.347656 268.644531 195.347656 269.347656 L 195.347656 271.113281 C 195.347656 271.8125 194.242188 272.386719 192.890625 272.386719 " fill-opacity="1" fill-rule="nonzero"/><path fill="#172832" d="M 214.957031 272.386719 L 205.71875 272.386719 C 204.363281 272.386719 203.257812 271.8125 203.257812 271.113281 L 203.257812 269.347656 C 203.257812 268.644531 204.363281 268.070312 205.71875 268.070312 L 214.957031 268.070312 C 216.316406 268.070312 217.417969 268.644531 217.417969 269.347656 L 217.417969 271.113281 C 217.417969 271.8125 216.316406 272.386719 214.957031 272.386719 " fill-opacity="1" fill-rule="nonzero"/><path fill="#172832" d="M 237.027344 272.386719 L 227.789062 272.386719 C 226.433594 272.386719 225.332031 271.8125 225.332031 271.113281 L 225.332031 269.347656 C 225.332031 268.644531 226.433594 268.070312 227.789062 268.070312 L 237.027344 268.070312 C 238.386719 268.070312 239.488281 268.644531 239.488281 269.347656 L 239.488281 271.113281 C 239.488281 271.8125 238.386719 272.386719 237.027344 272.386719 " fill-opacity="1" fill-rule="nonzero"/><path fill="#172832" d="M 259.097656 272.386719 L 249.863281 272.386719 C 248.503906 272.386719 247.402344 271.8125 247.402344 271.113281 L 247.402344 269.347656 C 247.402344 268.644531 248.503906 268.070312 249.863281 268.070312 L 259.097656 268.070312 C 260.460938 268.070312 261.566406 268.644531 261.566406 269.347656 L 261.566406 271.113281 C 261.566406 271.8125 260.460938 272.386719 259.097656 272.386719 " fill-opacity="1" fill-rule="nonzero"/><path fill="#172832" d="M 281.171875 272.386719 L 271.933594 272.386719 C 270.574219 272.386719 269.472656 271.8125 269.472656 271.113281 L 269.472656 269.347656 C 269.472656 268.644531 270.574219 268.070312 271.933594 268.070312 L 281.171875 268.070312 C 282.53125 268.070312 283.632812 268.644531 283.632812 269.347656 L 283.632812 271.113281 C 283.632812 271.8125 282.53125 272.386719 281.171875 272.386719 " fill-opacity="1" fill-rule="nonzero"/><path fill="#172832" d="M 303.242188 272.386719 L 294.007812 272.386719 C 292.648438 272.386719 291.542969 271.8125 291.542969 271.113281 L 291.542969 269.347656 C 291.542969 268.644531 292.648438 268.070312 294.007812 268.070312 L 303.242188 268.070312 C 304.605469 268.070312 305.703125 268.644531 305.703125 269.347656 L 305.703125 271.113281 C 305.703125 271.8125 304.605469 272.386719 303.242188 272.386719 " fill-opacity="1" fill-rule="nonzero"/><path fill="#172832" d="M 325.3125 272.386719 L 316.078125 272.386719 C 314.71875 272.386719 313.617188 271.8125 313.617188 271.113281 L 313.617188 269.347656 C 313.617188 268.644531 314.71875 268.070312 316.078125 268.070312 L 325.3125 268.070312 C 326.671875 268.070312 327.773438 268.644531 327.773438 269.347656 L 327.773438 271.113281 C 327.773438 271.8125 326.671875 272.386719 325.3125 272.386719 " fill-opacity="1" fill-rule="nonzero"/><path fill="#172832" d="M 52.183594 280.5625 L 42.347656 280.5625 C 40.902344 280.5625 39.730469 279.992188 39.730469 279.289062 L 39.730469 277.523438 C 39.730469 276.820312 40.902344 276.246094 42.347656 276.246094 L 52.183594 276.246094 C 53.632812 276.246094 54.804688 276.820312 54.804688 277.523438 L 54.804688 279.289062 C 54.804688 279.992188 53.632812 280.5625 52.183594 280.5625 " fill-opacity="1" fill-rule="nonzero"/><path fill="#172832" d="M 75.683594 280.5625 L 65.847656 280.5625 C 64.402344 280.5625 63.230469 279.992188 63.230469 279.289062 L 63.230469 277.523438 C 63.230469 276.820312 64.402344 276.246094 65.847656 276.246094 L 75.683594 276.246094 C 77.132812 276.246094 78.304688 276.820312 78.304688 277.523438 L 78.304688 279.289062 C 78.304688 279.992188 77.132812 280.5625 75.683594 280.5625 " fill-opacity="1" fill-rule="nonzero"/><path fill="#172832" d="M 99.179688 280.5625 L 89.347656 280.5625 C 87.902344 280.5625 86.726562 279.992188 86.726562 279.289062 L 86.726562 277.523438 C 86.726562 276.820312 87.902344 276.246094 89.347656 276.246094 L 99.179688 276.246094 C 100.632812 276.246094 101.804688 276.820312 101.804688 277.523438 L 101.804688 279.289062 C 101.804688 279.992188 100.632812 280.5625 99.179688 280.5625 " fill-opacity="1" fill-rule="nonzero"/><path fill="#172832" d="M 122.6875 280.5625 L 112.847656 280.5625 C 111.402344 280.5625 110.230469 279.992188 110.230469 279.289062 L 110.230469 277.523438 C 110.230469 276.820312 111.402344 276.246094 112.847656 276.246094 L 122.6875 276.246094 C 124.132812 276.246094 125.304688 276.820312 125.304688 277.523438 L 125.304688 279.289062 C 125.304688 279.992188 124.132812 280.5625 122.6875 280.5625 " fill-opacity="1" fill-rule="nonzero"/><path fill="#172832" d="M 146.183594 280.5625 L 136.347656 280.5625 C 134.902344 280.5625 133.726562 279.992188 133.726562 279.289062 L 133.726562 277.523438 C 133.726562 276.820312 134.902344 276.246094 136.347656 276.246094 L 146.183594 276.246094 C 147.632812 276.246094 148.804688 276.820312 148.804688 277.523438 L 148.804688 279.289062 C 148.804688 279.992188 147.632812 280.5625 146.183594 280.5625 " fill-opacity="1" fill-rule="nonzero"/><path fill="#172832" d="M 169.6875 280.5625 L 159.851562 280.5625 C 158.402344 280.5625 157.226562 279.992188 157.226562 279.289062 L 157.226562 277.523438 C 157.226562 276.820312 158.402344 276.246094 159.851562 276.246094 L 169.6875 276.246094 C 171.132812 276.246094 172.304688 276.820312 172.304688 277.523438 L 172.304688 279.289062 C 172.304688 279.992188 171.132812 280.5625 169.6875 280.5625 " fill-opacity="1" fill-rule="nonzero"/><path fill="#172832" d="M 193.183594 280.5625 L 183.351562 280.5625 C 181.902344 280.5625 180.726562 279.992188 180.726562 279.289062 L 180.726562 277.523438 C 180.726562 276.820312 181.902344 276.246094 183.351562 276.246094 L 193.183594 276.246094 C 194.632812 276.246094 195.804688 276.820312 195.804688 277.523438 L 195.804688 279.289062 C 195.804688 279.992188 194.632812 280.5625 193.183594 280.5625 " fill-opacity="1" fill-rule="nonzero"/><path fill="#172832" d="M 216.6875 280.5625 L 206.847656 280.5625 C 205.40625 280.5625 204.230469 279.992188 204.230469 279.289062 L 204.230469 277.523438 C 204.230469 276.820312 205.40625 276.246094 206.847656 276.246094 L 216.6875 276.246094 C 218.132812 276.246094 219.304688 276.820312 219.304688 277.523438 L 219.304688 279.289062 C 219.304688 279.992188 218.132812 280.5625 216.6875 280.5625 " fill-opacity="1" fill-rule="nonzero"/><path fill="#172832" d="M 240.183594 280.5625 L 230.351562 280.5625 C 228.902344 280.5625 227.726562 279.992188 227.726562 279.289062 L 227.726562 277.523438 C 227.726562 276.820312 228.902344 276.246094 230.351562 276.246094 L 240.183594 276.246094 C 241.632812 276.246094 242.804688 276.820312 242.804688 277.523438 L 242.804688 279.289062 C 242.804688 279.992188 241.632812 280.5625 240.183594 280.5625 " fill-opacity="1" fill-rule="nonzero"/><path fill="#172832" d="M 263.6875 280.5625 L 253.847656 280.5625 C 252.40625 280.5625 251.230469 279.992188 251.230469 279.289062 L 251.230469 277.523438 C 251.230469 276.820312 252.40625 276.246094 253.847656 276.246094 L 263.6875 276.246094 C 265.132812 276.246094 266.308594 276.820312 266.308594 277.523438 L 266.308594 279.289062 C 266.308594 279.992188 265.132812 280.5625 263.6875 280.5625 " fill-opacity="1" fill-rule="nonzero"/><path fill="#172832" d="M 287.183594 280.5625 L 277.351562 280.5625 C 275.902344 280.5625 274.726562 279.992188 274.726562 279.289062 L 274.726562 277.523438 C 274.726562 276.820312 275.902344 276.246094 277.351562 276.246094 L 287.183594 276.246094 C 288.632812 276.246094 289.804688 276.820312 289.804688 277.523438 L 289.804688 279.289062 C 289.804688 279.992188 288.632812 280.5625 287.183594 280.5625 " fill-opacity="1" fill-rule="nonzero"/><path fill="#172832" d="M 310.6875 280.5625 L 300.851562 280.5625 C 299.402344 280.5625 298.230469 279.992188 298.230469 279.289062 L 298.230469 277.523438 C 298.230469 276.820312 299.402344 276.246094 300.851562 276.246094 L 310.6875 276.246094 C 312.132812 276.246094 313.308594 276.820312 313.308594 277.523438 L 313.308594 279.289062 C 313.308594 279.992188 312.132812 280.5625 310.6875 280.5625 " fill-opacity="1" fill-rule="nonzero"/><path fill="#172832" d="M 334.183594 280.5625 L 324.351562 280.5625 C 322.902344 280.5625 321.726562 279.992188 321.726562 279.289062 L 321.726562 277.523438 C 321.726562 276.820312 322.902344 276.246094 324.351562 276.246094 L 334.183594 276.246094 C 335.632812 276.246094 336.804688 276.820312 336.804688 277.523438 L 336.804688 279.289062 C 336.804688 279.992188 335.632812 280.5625 334.183594 280.5625 " fill-opacity="1" fill-rule="nonzero"/><path fill="#172832" d="M 217.265625 288.269531 L 159.265625 288.269531 C 157.816406 288.269531 156.648438 287.628906 156.648438 286.839844 L 156.648438 284.859375 C 156.648438 284.070312 157.816406 283.425781 159.265625 283.425781 L 217.265625 283.425781 C 218.714844 283.425781 219.886719 284.070312 219.886719 284.859375 L 219.886719 286.839844 C 219.886719 287.628906 218.714844 288.269531 217.265625 288.269531 " fill-opacity="1" fill-rule="nonzero"/><path fill="#d3d2d2" d="M 191.691406 81.59375 C 191.691406 83.867188 189.84375 85.714844 187.566406 85.714844 C 185.289062 85.714844 183.441406 83.867188 183.441406 81.59375 C 183.441406 79.3125 185.289062 77.46875 187.566406 77.46875 C 189.84375 77.46875 191.691406 79.3125 191.691406 81.59375 " fill-opacity="1" fill-rule="nonzero"/><path fill="#bdbcbc" d="M 189.722656 81.59375 C 189.722656 82.785156 188.757812 83.75 187.566406 83.75 C 186.375 83.75 185.40625 82.785156 185.40625 81.59375 C 185.40625 80.402344 186.375 79.433594 187.566406 79.433594 C 188.757812 79.433594 189.722656 80.402344 189.722656 81.59375 " fill-opacity="1" fill-rule="nonzero"/><path fill="#2a4c5f" d="M 69.488281 262.816406 C 69.488281 263.476562 68.449219 264.019531 67.167969 264.019531 L 58.464844 264.019531 C 57.1875 264.019531 56.148438 263.476562 56.148438 262.816406 L 56.148438 261.15625 C 56.148438 260.492188 57.1875 259.953125 58.464844 259.953125 L 67.167969 259.953125 C 68.449219 259.953125 69.488281 260.492188 69.488281 261.15625 L 69.488281 262.816406 " fill-opacity="1" fill-rule="nonzero"/><path fill="#2a4c5f" d="M 90.277344 262.816406 C 90.277344 263.476562 89.242188 264.019531 87.957031 264.019531 L 79.257812 264.019531 C 77.980469 264.019531 76.941406 263.476562 76.941406 262.816406 L 76.941406 261.15625 C 76.941406 260.492188 77.980469 259.953125 79.257812 259.953125 L 87.957031 259.953125 C 89.242188 259.953125 90.277344 260.492188 90.277344 261.15625 L 90.277344 262.816406 " fill-opacity="1" fill-rule="nonzero"/><path fill="#2a4c5f" d="M 111.070312 262.816406 C 111.070312 263.476562 110.03125 264.019531 108.75 264.019531 L 100.050781 264.019531 C 98.773438 264.019531 97.730469 263.476562 97.730469 262.816406 L 97.730469 261.15625 C 97.730469 260.492188 98.773438 259.953125 100.050781 259.953125 L 108.75 259.953125 C 110.03125 259.953125 111.070312 260.492188 111.070312 261.15625 L 111.070312 262.816406 " fill-opacity="1" fill-rule="nonzero"/><path fill="#2a4c5f" d="M 131.863281 262.816406 C 131.863281 263.476562 130.824219 264.019531 129.542969 264.019531 L 120.839844 264.019531 C 119.5625 264.019531 118.523438 263.476562 118.523438 262.816406 L 118.523438 261.15625 C 118.523438 260.492188 119.5625 259.953125 120.839844 259.953125 L 129.542969 259.953125 C 130.824219 259.953125 131.863281 260.492188 131.863281 261.15625 L 131.863281 262.816406 " fill-opacity="1" fill-rule="nonzero"/><path fill="#2a4c5f" d="M 152.65625 262.816406 C 152.65625 263.476562 151.617188 264.019531 150.332031 264.019531 L 141.628906 264.019531 C 140.351562 264.019531 139.316406 263.476562 139.316406 262.816406 L 139.316406 261.15625 C 139.316406 260.492188 140.351562 259.953125 141.628906 259.953125 L 150.332031 259.953125 C 151.617188 259.953125 152.65625 260.492188 152.65625 261.15625 L 152.65625 262.816406 " fill-opacity="1" fill-rule="nonzero"/><path fill="#2a4c5f" d="M 173.441406 262.816406 C 173.441406 263.476562 172.40625 264.019531 171.125 264.019531 L 162.421875 264.019531 C 161.140625 264.019531 160.101562 263.476562 160.101562 262.816406 L 160.101562 261.15625 C 160.101562 260.492188 161.140625 259.953125 162.421875 259.953125 L 171.125 259.953125 C 172.40625 259.953125 173.441406 260.492188 173.441406 261.15625 L 173.441406 262.816406 " fill-opacity="1" fill-rule="nonzero"/><path fill="#2a4c5f" d="M 194.234375 262.816406 C 194.234375 263.476562 193.195312 264.019531 191.917969 264.019531 L 183.214844 264.019531 C 181.933594 264.019531 180.894531 263.476562 180.894531 262.816406 L 180.894531 261.15625 C 180.894531 260.492188 181.933594 259.953125 183.214844 259.953125 L 191.917969 259.953125 C 193.195312 259.953125 194.234375 260.492188 194.234375 261.15625 L 194.234375 262.816406 " fill-opacity="1" fill-rule="nonzero"/><path fill="#2a4c5f" d="M 215.023438 262.816406 C 215.023438 263.476562 213.988281 264.019531 212.710938 264.019531 L 204.007812 264.019531 C 202.726562 264.019531 201.683594 263.476562 201.683594 262.816406 L 201.683594 261.15625 C 201.683594 260.492188 202.726562 259.953125 204.007812 259.953125 L 212.710938 259.953125 C 213.988281 259.953125 215.023438 260.492188 215.023438 261.15625 L 215.023438 262.816406 " fill-opacity="1" fill-rule="nonzero"/><path fill="#2a4c5f" d="M 235.816406 262.816406 C 235.816406 263.476562 234.777344 264.019531 233.5 264.019531 L 224.800781 264.019531 C 223.515625 264.019531 222.476562 263.476562 222.476562 262.816406 L 222.476562 261.15625 C 222.476562 260.492188 223.515625 259.953125 224.800781 259.953125 L 233.5 259.953125 C 234.777344 259.953125 235.816406 260.492188 235.816406 261.15625 L 235.816406 262.816406 " fill-opacity="1" fill-rule="nonzero"/><path fill="#2a4c5f" d="M 256.609375 262.816406 C 256.609375 263.476562 255.570312 264.019531 254.289062 264.019531 L 245.585938 264.019531 C 244.308594 264.019531 243.269531 263.476562 243.269531 262.816406 L 243.269531 261.15625 C 243.269531 260.492188 244.308594 259.953125 245.585938 259.953125 L 254.289062 259.953125 C 255.570312 259.953125 256.609375 260.492188 256.609375 261.15625 L 256.609375 262.816406 " fill-opacity="1" fill-rule="nonzero"/><path fill="#2a4c5f" d="M 277.398438 262.816406 C 277.398438 263.476562 276.359375 264.019531 275.082031 264.019531 L 266.378906 264.019531 C 265.097656 264.019531 264.0625 263.476562 264.0625 262.816406 L 264.0625 261.15625 C 264.0625 260.492188 265.097656 259.953125 266.378906 259.953125 L 275.082031 259.953125 C 276.359375 259.953125 277.398438 260.492188 277.398438 261.15625 L 277.398438 262.816406 " fill-opacity="1" fill-rule="nonzero"/><path fill="#2a4c5f" d="M 298.191406 262.816406 C 298.191406 263.476562 297.152344 264.019531 295.871094 264.019531 L 287.171875 264.019531 C 285.890625 264.019531 284.851562 263.476562 284.851562 262.816406 L 284.851562 261.15625 C 284.851562 260.492188 285.890625 259.953125 287.171875 259.953125 L 295.871094 259.953125 C 297.152344 259.953125 298.191406 260.492188 298.191406 261.15625 L 298.191406 262.816406 " fill-opacity="1" fill-rule="nonzero"/><path fill="#2a4c5f" d="M 318.984375 262.816406 C 318.984375 263.476562 317.945312 264.019531 316.660156 264.019531 L 307.960938 264.019531 C 306.679688 264.019531 305.644531 263.476562 305.644531 262.816406 L 305.644531 261.15625 C 305.644531 260.492188 306.679688 259.953125 307.960938 259.953125 L 316.660156 259.953125 C 317.945312 259.953125 318.984375 260.492188 318.984375 261.15625 L 318.984375 262.816406 " fill-opacity="1" fill-rule="nonzero"/><path fill="#2a4c5f" d="M 62.21875 270.410156 C 62.21875 271.113281 61.113281 271.6875 59.753906 271.6875 L 50.519531 271.6875 C 49.160156 271.6875 48.054688 271.113281 48.054688 270.410156 L 48.054688 268.644531 C 48.054688 267.941406 49.160156 267.371094 50.519531 267.371094 L 59.753906 267.371094 C 61.113281 267.371094 62.21875 267.941406 62.21875 268.644531 L 62.21875 270.410156 " fill-opacity="1" fill-rule="nonzero"/><path fill="#2a4c5f" d="M 84.285156 270.410156 C 84.285156 271.113281 83.1875 271.6875 81.824219 271.6875 L 72.589844 271.6875 C 71.230469 271.6875 70.128906 271.113281 70.128906 270.410156 L 70.128906 268.644531 C 70.128906 267.941406 71.230469 267.371094 72.589844 267.371094 L 81.824219 267.371094 C 83.1875 267.371094 84.285156 267.941406 84.285156 268.644531 L 84.285156 270.410156 " fill-opacity="1" fill-rule="nonzero"/><path fill="#2a4c5f" d="M 106.363281 270.410156 C 106.363281 271.113281 105.257812 271.6875 103.894531 271.6875 L 94.65625 271.6875 C 93.300781 271.6875 92.199219 271.113281 92.199219 270.410156 L 92.199219 268.644531 C 92.199219 267.941406 93.300781 267.371094 94.65625 267.371094 L 103.894531 267.371094 C 105.257812 267.371094 106.363281 267.941406 106.363281 268.644531 L 106.363281 270.410156 " fill-opacity="1" fill-rule="nonzero"/><path fill="#2a4c5f" d="M 128.433594 270.410156 C 128.433594 271.113281 127.328125 271.6875 125.972656 271.6875 L 116.730469 271.6875 C 115.375 271.6875 114.269531 271.113281 114.269531 270.410156 L 114.269531 268.644531 C 114.269531 267.941406 115.375 267.371094 116.730469 267.371094 L 125.972656 267.371094 C 127.328125 267.371094 128.433594 267.941406 128.433594 268.644531 L 128.433594 270.410156 " fill-opacity="1" fill-rule="nonzero"/><path fill="#2a4c5f" d="M 150.5 270.410156 C 150.5 271.113281 149.402344 271.6875 148.039062 271.6875 L 138.804688 271.6875 C 137.445312 271.6875 136.339844 271.113281 136.339844 270.410156 L 136.339844 268.644531 C 136.339844 267.941406 137.445312 267.371094 138.804688 267.371094 L 148.039062 267.371094 C 149.402344 267.371094 150.5 267.941406 150.5 268.644531 L 150.5 270.410156 " fill-opacity="1" fill-rule="nonzero"/><path fill="#2a4c5f" d="M 172.570312 270.410156 C 172.570312 271.113281 171.472656 271.6875 170.113281 271.6875 L 160.875 271.6875 C 159.515625 271.6875 158.414062 271.113281 158.414062 270.410156 L 158.414062 268.644531 C 158.414062 267.941406 159.515625 267.371094 160.875 267.371094 L 170.113281 267.371094 C 171.472656 267.371094 172.570312 267.941406 172.570312 268.644531 L 172.570312 270.410156 " fill-opacity="1" fill-rule="nonzero"/><path fill="#2a4c5f" d="M 194.648438 270.410156 C 194.648438 271.113281 193.542969 271.6875 192.179688 271.6875 L 182.945312 271.6875 C 181.585938 271.6875 180.488281 271.113281 180.488281 270.410156 L 180.488281 268.644531 C 180.488281 267.941406 181.585938 267.371094 182.945312 267.371094 L 192.179688 267.371094 C 193.542969 267.371094 194.648438 267.941406 194.648438 268.644531 L 194.648438 270.410156 " fill-opacity="1" fill-rule="nonzero"/><path fill="#2a4c5f" d="M 216.71875 270.410156 C 216.71875 271.113281 215.617188 271.6875 214.257812 271.6875 L 205.015625 271.6875 C 203.660156 271.6875 202.558594 271.113281 202.558594 270.410156 L 202.558594 268.644531 C 202.558594 267.941406 203.660156 267.371094 205.015625 267.371094 L 214.257812 267.371094 C 215.617188 267.371094 216.71875 267.941406 216.71875 268.644531 L 216.71875 270.410156 " fill-opacity="1" fill-rule="nonzero"/><path fill="#2a4c5f" d="M 238.785156 270.410156 C 238.785156 271.113281 237.6875 271.6875 236.328125 271.6875 L 227.089844 271.6875 C 225.730469 271.6875 224.628906 271.113281 224.628906 270.410156 L 224.628906 268.644531 C 224.628906 267.941406 225.730469 267.371094 227.089844 267.371094 L 236.328125 267.371094 C 237.6875 267.371094 238.785156 267.941406 238.785156 268.644531 L 238.785156 270.410156 " fill-opacity="1" fill-rule="nonzero"/><path fill="#2a4c5f" d="M 260.859375 270.410156 C 260.859375 271.113281 259.757812 271.6875 258.398438 271.6875 L 249.160156 271.6875 C 247.804688 271.6875 246.699219 271.113281 246.699219 270.410156 L 246.699219 268.644531 C 246.699219 267.941406 247.804688 267.371094 249.160156 267.371094 L 258.398438 267.371094 C 259.757812 267.371094 260.859375 267.941406 260.859375 268.644531 L 260.859375 270.410156 " fill-opacity="1" fill-rule="nonzero"/><path fill="#2a4c5f" d="M 282.933594 270.410156 C 282.933594 271.113281 281.828125 271.6875 280.46875 271.6875 L 271.234375 271.6875 C 269.875 271.6875 268.773438 271.113281 268.773438 270.410156 L 268.773438 268.644531 C 268.773438 267.941406 269.875 267.371094 271.234375 267.371094 L 280.46875 267.371094 C 281.828125 267.371094 282.933594 267.941406 282.933594 268.644531 L 282.933594 270.410156 " fill-opacity="1" fill-rule="nonzero"/><path fill="#2a4c5f" d="M 305 270.410156 C 305 271.113281 303.902344 271.6875 302.542969 271.6875 L 293.304688 271.6875 C 291.949219 271.6875 290.84375 271.113281 290.84375 270.410156 L 290.84375 268.644531 C 290.84375 267.941406 291.949219 267.371094 293.304688 267.371094 L 302.542969 267.371094 C 303.902344 267.371094 305 267.941406 305 268.644531 L 305 270.410156 " fill-opacity="1" fill-rule="nonzero"/><path fill="#2a4c5f" d="M 327.074219 270.410156 C 327.074219 271.113281 325.972656 271.6875 324.613281 271.6875 L 315.375 271.6875 C 314.015625 271.6875 312.917969 271.113281 312.917969 270.410156 L 312.917969 268.644531 C 312.917969 267.941406 314.015625 267.371094 315.375 267.371094 L 324.613281 267.371094 C 325.972656 267.371094 327.074219 267.941406 327.074219 268.644531 L 327.074219 270.410156 " fill-opacity="1" fill-rule="nonzero"/><path fill="#2a4c5f" d="M 54.105469 278.589844 C 54.105469 279.289062 52.929688 279.859375 51.480469 279.859375 L 41.648438 279.859375 C 40.199219 279.859375 39.027344 279.289062 39.027344 278.589844 L 39.027344 276.824219 C 39.027344 276.117188 40.199219 275.546875 41.648438 275.546875 L 51.480469 275.546875 C 52.929688 275.546875 54.105469 276.117188 54.105469 276.824219 L 54.105469 278.589844 " fill-opacity="1" fill-rule="nonzero"/><path fill="#2a4c5f" d="M 77.605469 278.589844 C 77.605469 279.289062 76.433594 279.859375 74.984375 279.859375 L 65.144531 279.859375 C 63.703125 279.859375 62.527344 279.289062 62.527344 278.589844 L 62.527344 276.824219 C 62.527344 276.117188 63.703125 275.546875 65.144531 275.546875 L 74.984375 275.546875 C 76.433594 275.546875 77.605469 276.117188 77.605469 276.824219 L 77.605469 278.589844 " fill-opacity="1" fill-rule="nonzero"/><path fill="#2a4c5f" d="M 101.105469 278.589844 C 101.105469 279.289062 99.929688 279.859375 98.480469 279.859375 L 88.644531 279.859375 C 87.199219 279.859375 86.027344 279.289062 86.027344 278.589844 L 86.027344 276.824219 C 86.027344 276.117188 87.199219 275.546875 88.644531 275.546875 L 98.480469 275.546875 C 99.929688 275.546875 101.105469 276.117188 101.105469 276.824219 L 101.105469 278.589844 " fill-opacity="1" fill-rule="nonzero"/><path fill="#2a4c5f" d="M 124.605469 278.589844 C 124.605469 279.289062 123.429688 279.859375 121.984375 279.859375 L 112.148438 279.859375 C 110.703125 279.859375 109.527344 279.289062 109.527344 278.589844 L 109.527344 276.824219 C 109.527344 276.117188 110.703125 275.546875 112.148438 275.546875 L 121.984375 275.546875 C 123.429688 275.546875 124.605469 276.117188 124.605469 276.824219 L 124.605469 278.589844 " fill-opacity="1" fill-rule="nonzero"/><path fill="#2a4c5f" d="M 148.101562 278.589844 C 148.101562 279.289062 146.933594 279.859375 145.480469 279.859375 L 135.644531 279.859375 C 134.199219 279.859375 133.027344 279.289062 133.027344 278.589844 L 133.027344 276.824219 C 133.027344 276.117188 134.199219 275.546875 135.644531 275.546875 L 145.480469 275.546875 C 146.933594 275.546875 148.101562 276.117188 148.101562 276.824219 L 148.101562 278.589844 " fill-opacity="1" fill-rule="nonzero"/><path fill="#2a4c5f" d="M 171.605469 278.589844 C 171.605469 279.289062 170.433594 279.859375 168.984375 279.859375 L 159.148438 279.859375 C 157.703125 279.859375 156.527344 279.289062 156.527344 278.589844 L 156.527344 276.824219 C 156.527344 276.117188 157.703125 275.546875 159.148438 275.546875 L 168.984375 275.546875 C 170.433594 275.546875 171.605469 276.117188 171.605469 276.824219 L 171.605469 278.589844 " fill-opacity="1" fill-rule="nonzero"/><path fill="#2a4c5f" d="M 195.105469 278.589844 C 195.105469 279.289062 193.933594 279.859375 192.480469 279.859375 L 182.644531 279.859375 C 181.203125 279.859375 180.027344 279.289062 180.027344 278.589844 L 180.027344 276.824219 C 180.027344 276.117188 181.203125 275.546875 182.644531 275.546875 L 192.480469 275.546875 C 193.933594 275.546875 195.105469 276.117188 195.105469 276.824219 L 195.105469 278.589844 " fill-opacity="1" fill-rule="nonzero"/><path fill="#2a4c5f" d="M 218.605469 278.589844 C 218.605469 279.289062 217.429688 279.859375 215.984375 279.859375 L 206.148438 279.859375 C 204.703125 279.859375 203.527344 279.289062 203.527344 278.589844 L 203.527344 276.824219 C 203.527344 276.117188 204.703125 275.546875 206.148438 275.546875 L 215.984375 275.546875 C 217.429688 275.546875 218.605469 276.117188 218.605469 276.824219 L 218.605469 278.589844 " fill-opacity="1" fill-rule="nonzero"/><path fill="#2a4c5f" d="M 242.101562 278.589844 C 242.101562 279.289062 240.933594 279.859375 239.484375 279.859375 L 229.644531 279.859375 C 228.199219 279.859375 227.027344 279.289062 227.027344 278.589844 L 227.027344 276.824219 C 227.027344 276.117188 228.199219 275.546875 229.644531 275.546875 L 239.484375 275.546875 C 240.933594 275.546875 242.101562 276.117188 242.101562 276.824219 L 242.101562 278.589844 " fill-opacity="1" fill-rule="nonzero"/><path fill="#2a4c5f" d="M 265.605469 278.589844 C 265.605469 279.289062 264.433594 279.859375 262.984375 279.859375 L 253.144531 279.859375 C 251.703125 279.859375 250.527344 279.289062 250.527344 278.589844 L 250.527344 276.824219 C 250.527344 276.117188 251.703125 275.546875 253.144531 275.546875 L 262.984375 275.546875 C 264.433594 275.546875 265.605469 276.117188 265.605469 276.824219 L 265.605469 278.589844 " fill-opacity="1" fill-rule="nonzero"/><path fill="#2a4c5f" d="M 289.101562 278.589844 C 289.101562 279.289062 287.933594 279.859375 286.480469 279.859375 L 276.652344 279.859375 C 275.199219 279.859375 274.027344 279.289062 274.027344 278.589844 L 274.027344 276.824219 C 274.027344 276.117188 275.199219 275.546875 276.652344 275.546875 L 286.480469 275.546875 C 287.933594 275.546875 289.101562 276.117188 289.101562 276.824219 L 289.101562 278.589844 " fill-opacity="1" fill-rule="nonzero"/><path fill="#2a4c5f" d="M 312.605469 278.589844 C 312.605469 279.289062 311.433594 279.859375 309.984375 279.859375 L 300.148438 279.859375 C 298.703125 279.859375 297.527344 279.289062 297.527344 278.589844 L 297.527344 276.824219 C 297.527344 276.117188 298.703125 275.546875 300.148438 275.546875 L 309.984375 275.546875 C 311.433594 275.546875 312.605469 276.117188 312.605469 276.824219 L 312.605469 278.589844 " fill-opacity="1" fill-rule="nonzero"/><path fill="#2a4c5f" d="M 336.101562 278.589844 C 336.101562 279.289062 334.933594 279.859375 333.480469 279.859375 L 323.652344 279.859375 C 322.199219 279.859375 321.027344 279.289062 321.027344 278.589844 L 321.027344 276.824219 C 321.027344 276.117188 322.199219 275.546875 323.652344 275.546875 L 333.480469 275.546875 C 334.933594 275.546875 336.101562 276.117188 336.101562 276.824219 L 336.101562 278.589844 " fill-opacity="1" fill-rule="nonzero"/><path fill="#2a4c5f" d="M 219.1875 286.136719 C 219.1875 286.929688 218.011719 287.566406 216.566406 287.566406 L 158.566406 287.566406 C 157.117188 287.566406 155.941406 286.929688 155.941406 286.136719 L 155.941406 284.15625 C 155.941406 283.371094 157.117188 282.726562 158.566406 282.726562 L 216.566406 282.726562 C 218.011719 282.726562 219.1875 283.371094 219.1875 284.15625 L 219.1875 286.136719 " fill-opacity="1" fill-rule="nonzero"/></svg>