<svg xmlns="http://www.w3.org/2000/svg" xmlns:xlink="http://www.w3.org/1999/xlink" width="500" zoomAndPan="magnify" viewBox="0 0 375 374.999991" height="500" preserveAspectRatio="xMidYMid meet" version="1.0"><path fill="#d6d6d6" d="M 333.214844 293.234375 L 39.609375 293.234375 C 35.398438 293.234375 31.941406 289.753906 31.941406 285.539062 C 31.941406 281.300781 35.398438 277.839844 39.609375 277.839844 L 333.214844 277.839844 C 337.445312 277.839844 340.902344 281.300781 340.902344 285.539062 C 340.902344 289.753906 337.445312 293.234375 333.214844 293.234375 " fill-opacity="1" fill-rule="nonzero"/><path fill="#b1bdc5" d="M 333.535156 285.0625 L 39.289062 285.0625 L 39.289062 277.285156 L 333.535156 277.285156 L 333.535156 285.0625 " fill-opacity="1" fill-rule="nonzero"/><path fill="#ffffff" d="M 316.453125 265.191406 L 57.78125 265.191406 C 53.371094 265.191406 49.796875 261.613281 49.796875 257.175781 L 49.796875 90.109375 C 49.796875 85.695312 53.371094 82.113281 57.78125 82.113281 L 316.453125 82.113281 C 320.863281 82.113281 324.457031 85.695312 324.457031 90.109375 L 324.457031 257.175781 C 324.457031 261.613281 320.863281 265.191406 316.453125 265.191406 " fill-opacity="1" fill-rule="nonzero"/><path fill="#004da6" d="M 58.433594 256.539062 L 58.433594 90.765625 L 315.800781 90.765625 L 315.800781 256.539062 L 58.433594 256.539062 " fill-opacity="1" fill-rule="nonzero"/><path fill="#0b5cba" d="M 61.3125 253.65625 L 61.3125 93.648438 L 312.917969 93.648438 L 312.917969 253.65625 L 61.3125 253.65625 " fill-opacity="1" fill-rule="nonzero"/><path fill="#071c60" d="M 189.152344 86.449219 C 189.152344 87.5625 188.257812 88.480469 187.125 88.480469 C 185.996094 88.480469 185.082031 87.5625 185.082031 86.449219 C 185.082031 85.316406 185.996094 84.402344 187.125 84.402344 C 188.257812 84.402344 189.152344 85.316406 189.152344 86.449219 " fill-opacity="1" fill-rule="nonzero"/><path fill="#071c60" d="M 190.105469 260.996094 C 190.105469 262.644531 188.773438 263.980469 187.125 263.980469 C 185.476562 263.980469 184.128906 262.644531 184.128906 260.996094 C 184.128906 259.34375 185.476562 258.011719 187.125 258.011719 C 188.773438 258.011719 190.105469 259.34375 190.105469 260.996094 " fill-opacity="1" fill-rule="nonzero"/><path fill="#ffffff" d="M 187.125 88.042969 C 186.253906 88.042969 185.519531 87.324219 185.519531 86.449219 C 185.519531 85.554688 186.253906 84.839844 187.125 84.839844 C 188 84.839844 188.734375 85.554688 188.734375 86.449219 C 188.734375 87.324219 188 88.042969 187.125 88.042969 " fill-opacity="1" fill-rule="nonzero"/><path fill="#e8eef2" d="M 334.386719 280.726562 L 39.867188 280.726562 C 38.316406 280.726562 36.847656 280.167969 35.734375 279.152344 L 32.378906 276.070312 C 28.605469 272.628906 31.207031 266.625 36.488281 266.625 L 337.746094 266.625 C 343.027344 266.625 345.648438 272.628906 341.875 276.070312 L 338.5 279.152344 C 337.40625 280.167969 335.9375 280.726562 334.386719 280.726562 " fill-opacity="1" fill-rule="nonzero"/><path fill="#071c60" d="M 51.601562 273.683594 C 51.601562 274.359375 51.046875 274.917969 50.351562 274.917969 C 49.675781 274.917969 49.101562 274.359375 49.101562 273.683594 C 49.101562 272.988281 49.675781 272.433594 50.351562 272.433594 C 51.046875 272.433594 51.601562 272.988281 51.601562 273.683594 " fill-opacity="1" fill-rule="nonzero"/><path fill="#ffffff" d="M 50.351562 274.660156 C 49.816406 274.660156 49.378906 274.222656 49.378906 273.683594 C 49.378906 273.128906 49.816406 272.691406 50.351562 272.691406 C 50.886719 272.691406 51.324219 273.128906 51.324219 273.683594 C 51.324219 274.222656 50.886719 274.660156 50.351562 274.660156 " fill-opacity="1" fill-rule="nonzero"/><path fill="#071c60" d="M 56.609375 273.683594 C 56.609375 274.359375 56.050781 274.917969 55.355469 274.917969 C 54.679688 274.917969 54.125 274.359375 54.125 273.683594 C 54.125 272.988281 54.679688 272.433594 55.355469 272.433594 C 56.050781 272.433594 56.609375 272.988281 56.609375 273.683594 " fill-opacity="1" fill-rule="nonzero"/><path fill="#ffffff" d="M 55.355469 274.660156 C 54.820312 274.660156 54.382812 274.222656 54.382812 273.683594 C 54.382812 273.128906 54.820312 272.691406 55.355469 272.691406 C 55.914062 272.691406 56.347656 273.128906 56.347656 273.683594 C 56.347656 274.222656 55.914062 274.660156 55.355469 274.660156 " fill-opacity="1" fill-rule="nonzero"/><path fill="#071c60" d="M 61.613281 273.683594 C 61.613281 274.359375 61.054688 274.917969 60.382812 274.917969 C 59.6875 274.917969 59.128906 274.359375 59.128906 273.683594 C 59.128906 272.988281 59.6875 272.433594 60.382812 272.433594 C 61.054688 272.433594 61.613281 272.988281 61.613281 273.683594 " fill-opacity="1" fill-rule="nonzero"/><path fill="#ffffff" d="M 60.382812 274.660156 C 59.84375 274.660156 59.386719 274.222656 59.386719 273.683594 C 59.386719 273.128906 59.84375 272.691406 60.382812 272.691406 C 60.917969 272.691406 61.355469 273.128906 61.355469 273.683594 C 61.355469 274.222656 60.917969 274.660156 60.382812 274.660156 " fill-opacity="1" fill-rule="nonzero"/><path fill="#ffffff" d="M 312.917969 93.667969 L 312.917969 106.894531 L 61.335938 106.894531 L 61.335938 93.667969 L 312.917969 93.667969 " fill-opacity="1" fill-rule="nonzero"/><path fill="#2b8cfc" d="M 312.917969 106.894531 L 312.917969 253.636719 L 61.335938 253.636719 L 61.335938 106.894531 L 312.917969 106.894531 " fill-opacity="1" fill-rule="nonzero"/><path fill="#ffacb4" d="M 98.769531 121.335938 L 75.734375 121.335938 L 75.734375 125.472656 L 98.769531 125.472656 L 98.769531 121.335938 " fill-opacity="1" fill-rule="nonzero"/><path fill="#ffffff" d="M 136.226562 121.335938 L 112.097656 121.335938 L 112.097656 125.472656 L 136.226562 125.472656 L 136.226562 121.335938 " fill-opacity="1" fill-rule="nonzero"/><path fill="#ffffff" d="M 192.390625 121.335938 L 145.222656 121.335938 L 145.222656 125.472656 L 192.390625 125.472656 L 192.390625 121.335938 " fill-opacity="1" fill-rule="nonzero"/><path fill="#ffffff" d="M 269.109375 121.335938 L 208.59375 121.335938 L 208.59375 125.472656 L 269.109375 125.472656 L 269.109375 121.335938 " fill-opacity="1" fill-rule="nonzero"/><path fill="#ffffff" d="M 98.769531 129.886719 L 75.734375 129.886719 L 75.734375 134.023438 L 98.769531 134.023438 L 98.769531 129.886719 " fill-opacity="1" fill-rule="nonzero"/><path fill="#ffffff" d="M 168.636719 129.886719 L 112.097656 129.886719 L 112.097656 134.023438 L 168.636719 134.023438 L 168.636719 129.886719 " fill-opacity="1" fill-rule="nonzero"/><path fill="#fed377" d="M 249.644531 129.886719 L 185.558594 129.886719 L 185.558594 134.023438 L 249.644531 134.023438 L 249.644531 129.886719 " fill-opacity="1" fill-rule="nonzero"/><path fill="#ffffff" d="M 133.703125 138.441406 L 112.097656 138.441406 L 112.097656 142.597656 L 133.703125 142.597656 L 133.703125 138.441406 " fill-opacity="1" fill-rule="nonzero"/><path fill="#ffffff" d="M 201.761719 138.441406 L 143.058594 138.441406 L 143.058594 142.597656 L 201.761719 142.597656 L 201.761719 138.441406 " fill-opacity="1" fill-rule="nonzero"/><path fill="#ffffff" d="M 231.652344 138.441406 L 231.652344 142.597656 L 298.5 142.597656 L 298.5 138.441406 L 231.652344 138.441406 " fill-opacity="1" fill-rule="nonzero"/><path fill="#ffffff" d="M 98.769531 138.441406 L 75.734375 138.441406 L 75.734375 142.597656 L 98.769531 142.597656 L 98.769531 138.441406 " fill-opacity="1" fill-rule="nonzero"/><path fill="#ffacb4" d="M 98.769531 146.992188 L 75.734375 146.992188 L 75.734375 151.148438 L 98.769531 151.148438 L 98.769531 146.992188 " fill-opacity="1" fill-rule="nonzero"/><path fill="#fed377" d="M 186.273438 146.992188 L 112.097656 146.992188 L 112.097656 151.148438 L 186.273438 151.148438 L 186.273438 146.992188 " fill-opacity="1" fill-rule="nonzero"/><path fill="#ffffff" d="M 263.707031 155.542969 L 112.097656 155.542969 L 112.097656 159.699219 L 263.707031 159.699219 L 263.707031 155.542969 " fill-opacity="1" fill-rule="nonzero"/><path fill="#ffacb4" d="M 98.769531 164.097656 L 75.734375 164.097656 L 75.734375 168.253906 L 98.769531 168.253906 L 98.769531 164.097656 " fill-opacity="1" fill-rule="nonzero"/><path fill="#ffffff" d="M 233.816406 164.097656 L 112.097656 164.097656 L 112.097656 168.253906 L 233.816406 168.253906 L 233.816406 164.097656 " fill-opacity="1" fill-rule="nonzero"/><path fill="#ffffff" d="M 98.769531 172.667969 L 75.734375 172.667969 L 75.734375 176.804688 L 98.769531 176.804688 L 98.769531 172.667969 " fill-opacity="1" fill-rule="nonzero"/><path fill="#ffffff" d="M 137.296875 172.667969 L 112.097656 172.667969 L 112.097656 176.804688 L 137.296875 176.804688 L 137.296875 172.667969 " fill-opacity="1" fill-rule="nonzero"/><path fill="#fed377" d="M 145.222656 172.667969 L 145.222656 176.804688 L 207.523438 176.804688 L 207.523438 172.667969 L 145.222656 172.667969 " fill-opacity="1" fill-rule="nonzero"/><path fill="#ffffff" d="M 215.445312 181.222656 L 112.097656 181.222656 L 112.097656 185.359375 L 215.445312 185.359375 L 215.445312 181.222656 " fill-opacity="1" fill-rule="nonzero"/><path fill="#ffffff" d="M 246.410156 181.222656 L 246.410156 185.359375 L 298.5 185.359375 L 298.5 181.222656 L 246.410156 181.222656 " fill-opacity="1" fill-rule="nonzero"/><path fill="#ffffff" d="M 98.769531 181.222656 L 75.734375 181.222656 L 75.734375 185.359375 L 98.769531 185.359375 L 98.769531 181.222656 " fill-opacity="1" fill-rule="nonzero"/><path fill="#ffffff" d="M 275.582031 189.773438 L 256.140625 189.773438 L 256.140625 193.910156 L 275.582031 193.910156 L 275.582031 189.773438 " fill-opacity="1" fill-rule="nonzero"/><path fill="#ffffff" d="M 215.445312 189.773438 L 112.097656 189.773438 L 112.097656 193.910156 L 215.445312 193.910156 L 215.445312 189.773438 " fill-opacity="1" fill-rule="nonzero"/><path fill="#ffacb4" d="M 98.769531 198.324219 L 75.734375 198.324219 L 75.734375 202.480469 L 98.769531 202.480469 L 98.769531 198.324219 " fill-opacity="1" fill-rule="nonzero"/><path fill="#ffffff" d="M 150.980469 198.324219 L 112.097656 198.324219 L 112.097656 202.480469 L 150.980469 202.480469 L 150.980469 198.324219 " fill-opacity="1" fill-rule="nonzero"/><path fill="#ffffff" d="M 167.1875 198.324219 L 167.1875 202.480469 L 298.5 202.480469 L 298.5 198.324219 L 167.1875 198.324219 " fill-opacity="1" fill-rule="nonzero"/><path fill="#fed377" d="M 143.773438 206.878906 L 143.773438 211.035156 L 215.445312 211.035156 L 215.445312 206.878906 L 143.773438 206.878906 " fill-opacity="1" fill-rule="nonzero"/><path fill="#ffffff" d="M 136.941406 206.878906 L 112.097656 206.878906 L 112.097656 211.035156 L 136.941406 211.035156 L 136.941406 206.878906 " fill-opacity="1" fill-rule="nonzero"/><path fill="#ffffff" d="M 241.363281 206.878906 L 241.363281 211.035156 L 298.5 211.035156 L 298.5 206.878906 L 241.363281 206.878906 " fill-opacity="1" fill-rule="nonzero"/><path fill="#ffffff" d="M 98.769531 206.878906 L 75.734375 206.878906 L 75.734375 211.035156 L 98.769531 211.035156 L 98.769531 206.878906 " fill-opacity="1" fill-rule="nonzero"/><path fill="#ffffff" d="M 154.21875 215.429688 L 112.097656 215.429688 L 112.097656 219.585938 L 154.21875 219.585938 L 154.21875 215.429688 " fill-opacity="1" fill-rule="nonzero"/><path fill="#ffffff" d="M 159.261719 215.429688 L 159.261719 219.585938 L 260.449219 219.585938 L 260.449219 215.429688 L 159.261719 215.429688 " fill-opacity="1" fill-rule="nonzero"/><path fill="#ffacb4" d="M 98.769531 224.003906 L 75.734375 224.003906 L 75.734375 228.140625 L 98.769531 228.140625 L 98.769531 224.003906 " fill-opacity="1" fill-rule="nonzero"/><path fill="#fed377" d="M 279.914062 224.003906 L 112.097656 224.003906 L 112.097656 228.140625 L 279.914062 228.140625 L 279.914062 224.003906 " fill-opacity="1" fill-rule="nonzero"/><path fill="#ffffff" d="M 98.769531 232.554688 L 75.734375 232.554688 L 75.734375 236.691406 L 98.769531 236.691406 L 98.769531 232.554688 " fill-opacity="1" fill-rule="nonzero"/><path fill="#ffffff" d="M 141.984375 232.554688 L 112.097656 232.554688 L 112.097656 236.691406 L 141.984375 236.691406 L 141.984375 232.554688 " fill-opacity="1" fill-rule="nonzero"/><path fill="#ffffff" d="M 150.265625 232.554688 L 150.265625 236.691406 L 298.5 236.691406 L 298.5 232.554688 L 150.265625 232.554688 " fill-opacity="1" fill-rule="nonzero"/><path fill="#0b5cba" d="M 141.828125 102.601562 L 78.054688 102.601562 C 76.765625 102.601562 75.734375 101.566406 75.734375 100.273438 C 75.734375 99 76.765625 97.964844 78.054688 97.964844 L 141.828125 97.964844 C 143.097656 97.964844 144.128906 99 144.128906 100.273438 C 144.128906 101.566406 143.097656 102.601562 141.828125 102.601562 " fill-opacity="1" fill-rule="nonzero"/></svg>